<svg class="rmm-add" height="16px" version="1.1" viewBox="0 0 17 16" width="17px" xmlns="http://www.w3.org/2000/svg">
  <g stroke="none" stroke-width="1" fill="none" fill-rule="evenodd">
    <g fill="currentColor">
      <path d="M9.5,7 L15.4991283,7 C16.0518945,7 16.5,7.44386482 16.5,8 C16.5,8.55228475 16.0553691,9 15.4991283,9 L9.5,9 L9.5,14.9991283 C9.5,15.5518945 9.05613518,16 8.5,16 C7.94771525,16 7.5,15.5553691 7.5,14.9991283 L7.5,9 L1.50087166,9 C0.948105505,9 0.5,8.55613518 0.5,8 C0.5,7.44771525 0.944630861,7 1.50087166,7 L7.5,7 L7.5,1.00087166 C7.5,0.448105505 7.94386482,0 8.5,0 C9.05228475,0 9.5,0.444630861 9.5,1.00087166 L9.5,7 Z"></path>
    </g>
  </g>
</svg>
