<svg width="16px" height="16px" viewBox="0 0 16 16" version="1.1" xmlns="http://www.w3.org/2000/svg" xmlns:xlink="http://www.w3.org/1999/xlink">
    <g stroke="none" stroke-width="1" fill="none" fill-rule="evenodd" transform="translate(-966.000000, -18.000000)">
        <g fill="currentColor">
            <path d="M980.518519,23.0617284 C980.913582,24.0000047 981.111111,24.9794188 981.111111,26 C981.111111,27.0205812 980.913582,27.9999953 980.518519,28.9382716 C980.131685,29.8436259 979.590538,30.6440294 978.895062,31.3395062 C978.199585,32.0349829 977.399181,32.5761298 976.493827,32.962963 C975.555551,33.3580267 974.576137,33.5555556 973.555556,33.5555556 C972.534974,33.5555556 971.55556,33.3580267 970.617284,32.962963 C969.71193,32.5761298 968.911526,32.0349829 968.216049,31.3395062 C967.520573,30.6440294 966.979426,29.8436259 966.592593,28.9382716 C966.197529,27.9999953 966,27.0205812 966,26 C966,24.9794188 966.197529,24.0000047 966.592593,23.0617284 C966.979426,22.1563741 967.520573,21.3559706 968.216049,20.6604938 C968.911526,19.9650171 969.71193,19.4238702 970.617284,19.037037 C971.55556,18.6419733 972.534974,18.4444444 973.555556,18.4444444 C974.576137,18.4444444 975.555551,18.6419733 976.493827,19.037037 C977.399181,19.4238702 978.199585,19.9650171 978.895062,20.6604938 C979.590538,21.3559706 980.131685,22.1563741 980.518519,23.0617284 Z M974.135802,29.7654321 C974.292182,29.6090527 974.37037,29.415639 974.37037,29.1851852 C974.37037,28.9547314 974.294239,28.7613177 974.141975,28.6049383 C973.989711,28.4485589 973.796297,28.3703704 973.561728,28.3703704 C973.327159,28.3703704 973.131688,28.4465013 972.975309,28.5987654 C972.818929,28.7510296 972.740741,28.9465009 972.740741,29.1851852 C972.740741,29.4238695 972.816872,29.6193408 972.969136,29.7716049 C973.1214,29.9238691 973.314814,30 973.549383,30 C973.783952,30 973.979423,29.9218115 974.135802,29.7654321 Z M974.123457,26.6296296 C974.139918,26.4897112 974.199588,25.884779 974.302469,24.8148148 C974.40535,23.7448506 974.440329,23.041154 974.407407,22.7037037 C974.358024,22.5144023 974.273663,22.3518525 974.154321,22.2160494 C974.034979,22.0802462 973.876544,22.0082305 973.679012,22 L973.419753,22 C973.222221,22.0082305 973.059671,22.076131 972.932099,22.2037037 C972.804526,22.3312764 972.728395,22.4979414 972.703704,22.7037037 C972.687243,23.0658454 972.724279,23.7777725 972.814815,24.8395062 C972.90535,25.9012399 972.958848,26.4979417 972.975309,26.6296296 C972.975309,26.8271615 973.020576,26.9917689 973.111111,27.1234568 C973.201647,27.2551447 973.347736,27.3209877 973.549383,27.3209877 C973.75103,27.3209877 973.897119,27.2551447 973.987654,27.1234568 C974.07819,26.9917689 974.123457,26.8271615 974.123457,26.6296296 Z"></path>
        </g>
    </g>
</svg>
