<svg width="44px" height="44px" viewBox="0 0 44 44" version="1.1" xmlns="http://www.w3.org/2000/svg" xmlns:xlink="http://www.w3.org/1999/xlink">
  <g stroke="none" stroke-width="1" fill="none" fill-rule="evenodd">
    <g transform="translate(-0.000000, 0.000000)" fill="currentColor">
      <path d="M0,4.00180999 C0,1.79167136 1.79309123,0 4.00180999,0 L39.99819,0 C42.2083286,0 44,1.79309123 44,4.00180999 L44,39.99819 C44,42.2083286 42.2069088,44 39.99819,44 L4.00180999,44 C1.79167136,44 0,42.2069088 0,39.99819 L0,4.00180999 Z M2,11.0022853 L2,39.9977147 C2,41.1002151 2.89421792,42 3.99729162,42 L40.0027084,42 C41.1084602,42 42,41.1035463 42,39.9977147 L42,11.0022853 C42,9.89978493 41.1057821,9 40.0027084,9 L3.99729162,9 C2.89153983,9 2,9.89645368 2,11.0022853 Z M29.5,27 C28.6715729,27 28,26.3284271 28,25.5 C28,24.6715729 28.6715729,24 29.5,24 C30.3284271,24 31,24.6715729 31,25.5 C31,26.3284271 30.3284271,27 29.5,27 Z M22.5,27 C21.6715729,27 21,26.3284271 21,25.5 C21,24.6715729 21.6715729,24 22.5,24 C23.3284271,24 24,24.6715729 24,25.5 C24,26.3284271 23.3284271,27 22.5,27 Z M36.5,27 C35.6715729,27 35,26.3284271 35,25.5 C35,24.6715729 35.6715729,24 36.5,24 C37.3284271,24 38,24.6715729 38,25.5 C38,26.3284271 37.3284271,27 36.5,27 Z M22.5,36 C21.6715729,36 21,35.3284271 21,34.5 C21,33.6715729 21.6715729,33 22.5,33 C23.3284271,33 24,33.6715729 24,34.5 C24,35.3284271 23.3284271,36 22.5,36 Z M29.5,36 C28.6715729,36 28,35.3284271 28,34.5 C28,33.6715729 28.6715729,33 29.5,33 C30.3284271,33 31,33.6715729 31,34.5 C31,35.3284271 30.3284271,36 29.5,36 Z M29.5,18 C28.6715729,18 28,17.3284271 28,16.5 C28,15.6715729 28.6715729,15 29.5,15 C30.3284271,15 31,15.6715729 31,16.5 C31,17.3284271 30.3284271,18 29.5,18 Z M36.5,18 C35.6715729,18 35,17.3284271 35,16.5 C35,15.6715729 35.6715729,15 36.5,15 C37.3284271,15 38,15.6715729 38,16.5 C38,17.3284271 37.3284271,18 36.5,18 Z M15.5,27 C14.6715729,27 14,26.3284271 14,25.5 C14,24.6715729 14.6715729,24 15.5,24 C16.3284271,24 17,24.6715729 17,25.5 C17,26.3284271 16.3284271,27 15.5,27 Z M15.5,36 C14.6715729,36 14,35.3284271 14,34.5 C14,33.6715729 14.6715729,33 15.5,33 C16.3284271,33 17,33.6715729 17,34.5 C17,35.3284271 16.3284271,36 15.5,36 Z M22.5,18 C21.6715729,18 21,17.3284271 21,16.5 C21,15.6715729 21.6715729,15 22.5,15 C23.3284271,15 24,15.6715729 24,16.5 C24,17.3284271 23.3284271,18 22.5,18 Z M8.5,27 C7.67157288,27 7,26.3284271 7,25.5 C7,24.6715729 7.67157288,24 8.5,24 C9.32842712,24 10,24.6715729 10,25.5 C10,26.3284271 9.32842712,27 8.5,27 Z M8.5,36 C7.67157288,36 7,35.3284271 7,34.5 C7,33.6715729 7.67157288,33 8.5,33 C9.32842712,33 10,33.6715729 10,34.5 C10,35.3284271 9.32842712,36 8.5,36 Z M15.5,18 C14.6715729,18 14,17.3284271 14,16.5 C14,15.6715729 14.6715729,15 15.5,15 C16.3284271,15 17,15.6715729 17,16.5 C17,17.3284271 16.3284271,18 15.5,18 Z"></path>
    </g>
  </g>
</svg>
