<svg class="rmm-demo-device" height="18px" version="1.1" viewBox="0 0 10 18" width="10px" xmlns="http://www.w3.org/2000/svg">
  <g stroke="none" stroke-width="1" fill="none" fill-rule="evenodd">
    <g fill="currentColor">
      <path d="M3.94351218e-13,1.95652174 C3.94351218e-13,0.87596462 0.8954305,5.84168696e-14 2,5.86197757e-14 C3.1045695,5.88226818e-14 4,0.87596462 4,1.95652174 C4,3.03707886 3.1045695,3.91304348 2,3.91304348 C0.8954305,3.91304348 3.9346304e-13,3.03707886 3.94351218e-13,1.95652174 Z M3.94351218e-13,9 C3.94351218e-13,7.91944288 0.8954305,7.04347826 2,7.04347826 C3.1045695,7.04347826 4,7.91944288 4,9 C4,10.0805571 3.1045695,10.9565217 2,10.9565217 C0.8954305,10.9565217 3.9346304e-13,10.0805571 3.94351218e-13,9 Z M3.92574862e-13,16.0434783 C3.92574862e-13,14.9629211 0.8954305,14.0869565 2,14.0869565 C3.1045695,14.0869565 4,14.9629211 4,16.0434783 C4,17.1240354 3.1045695,18 2,18 C0.8954305,18 3.91686683e-13,17.1240354 3.92574862e-13,16.0434783 Z M6,1.95652174 C6,0.87596462 6.8954305,5.84168696e-14 8,5.86197757e-14 C9.1045695,5.88226818e-14 10,0.87596462 10,1.95652174 C10,3.03707886 9.1045695,3.91304348 8,3.91304348 C6.8954305,3.91304348 6,3.03707886 6,1.95652174 Z M6,9 C6,7.91944288 6.8954305,7.04347826 8,7.04347826 C9.1045695,7.04347826 10,7.91944288 10,9 C10,10.0805571 9.1045695,10.9565217 8,10.9565217 C6.8954305,10.9565217 6,10.0805571 6,9 Z M6,16.0434783 C6,14.9629211 6.8954305,14.0869565 8,14.0869565 C9.1045695,14.0869565 10,14.9629211 10,16.0434783 C10,17.1240354 9.1045695,18 8,18 C6.8954305,18 6,17.1240354 6,16.0434783 Z"></path>
    </g>
  </g>
</svg>
