<svg class="rmm-trashcan" height="16px" version="1.1" viewBox="0 0 13 16" width="13px" xmlns="http://www.w3.org/2000/svg">
  <g stroke="none" stroke-width="1" fill="none" fill-rule="evenodd">
    <g transform="translate(-5970.000000, -1003.000000)" fill="currentColor" fill-rule="nonzero">
      <g transform="translate(4873.000000, 569.000000)">
        <g transform="translate(1097.000000, 434.000000)">
          <path d="M8.32157143,-1.09245946e-13 C8.67416579,-1.09245946e-13 8.96,0.283746033 8.96,0.639392433 L8.959,1.919 L11.52,1.92 L11.519,1.92 L12.16,1.92 L12.16,2.56 L11.478,2.56 L10.6779508,15.0322246 C10.6436267,15.5667122 10.1789214,16 9.64645013,16 L2.19485746,16 C1.84308947,16 1.53875301,15.7059192 1.5160986,15.3584245 L0.681,2.56 L-2.91322522e-13,2.56 L-2.91322522e-13,1.92 L0.639,1.92 L0.64,1.92 L3.2,1.92 L3.2,0.639392433 C3.2,0.286265743 3.4856393,-1.09245946e-13 3.83842857,-1.09245946e-13 L8.32157143,-1.09245946e-13 Z M3.83929125,4.13871392 L3.20070875,4.18128608 L3.84070875,13.7812861 L4.47929125,13.7387139 L3.83929125,4.13871392 Z M8.32070875,4.13871392 L7.68070875,13.7387139 L8.31929125,13.7812861 L8.95929125,4.18128608 L8.32070875,4.13871392 Z M6.4,4.16 L5.76,4.16 L5.76,13.76 L6.4,13.76 L6.4,4.16 Z M8.32,0.639392433 L3.83842857,0.64 L3.83842857,0.64 L3.83891244,0.798273967 C3.83896181,0.83110116 3.83900967,0.868227152 3.83905599,0.908870344 L3.839,1.919 L8.319,1.919 L8.32,0.639392433 Z"></path>
        </g>
      </g>
    </g>
  </g>
</svg>
