<svg class="rmm-back" height="16px" version="1.1" viewBox="0 0 16 16" width="16px" xmlns="http://www.w3.org/2000/svg">
  <g stroke="none" stroke-width="1" fill="none" fill-rule="evenodd">
    <g transform="translate(-1954.000000, -453.000000)" fill="currentColor">
      <g transform="translate(1929.000000, 384.000000)">
        <g class="SvgImage-fill-color" fill="currentColor">
          <path d="M32.5555556,85 C31.5349743,85 30.5555602,84.8024711 29.617284,84.4074074 C28.7119296,84.0205742 27.9115261,83.4794273 27.2160494,82.7839506 C26.5205727,82.0884739 25.9794258,81.2880704 25.5925926,80.382716 C25.1975289,79.4444398 25,78.4650257 25,77.4444444 C25,76.4238632 25.1975289,75.4444491 25.5925926,74.5061728 C25.9794258,73.6008185 26.5205727,72.800415 27.2160494,72.1049383 C27.9115261,71.4094615 28.7119296,70.8683147 29.617284,70.4814815 C30.5555602,70.0864178 31.5349743,69.8888889 32.5555556,69.8888889 C33.5761368,69.8888889 34.5555509,70.0864178 35.4938272,70.4814815 C36.3991815,70.8683147 37.199585,71.4094615 37.8950617,72.1049383 C38.5905385,72.800415 39.1316853,73.6008185 39.5185185,74.5061728 C39.9135822,75.4444491 40.1111111,76.4238632 40.1111111,77.4444444 C40.1111111,78.4650257 39.9135822,79.4444398 39.5185185,80.382716 C39.1316853,81.2880704 38.5905385,82.0884739 37.8950617,82.7839506 C37.199585,83.4794273 36.3991815,84.0205742 35.4938272,84.4074074 C34.5555509,84.8024711 33.5761368,85 32.5555556,85 Z M32.5555556,70.8641975 C31.6666622,70.8641975 30.8107037,71.0370353 29.9876543,71.382716 C29.2057574,71.7119358 28.5102911,72.1810669 27.9012346,72.7901235 C27.292178,73.39918 26.8230469,74.0946463 26.4938272,74.8765432 C26.1481464,75.6995926 25.9753086,76.5555511 25.9753086,77.4444444 C25.9753086,78.3333378 26.1481464,79.1892963 26.4938272,80.0123457 C26.8230469,80.7942426 27.292178,81.4897089 27.9012346,82.0987654 C28.5102911,82.707822 29.2057574,83.1769531 29.9876543,83.5061728 C30.8107037,83.8518536 31.6666622,84.0246914 32.5555556,84.0246914 C33.4444489,84.0246914 34.3004074,83.8518536 35.1234568,83.5061728 C35.9053537,83.1769531 36.60082,82.707822 37.2098765,82.0987654 C37.8189331,81.4897089 38.2880642,80.7942426 38.617284,80.0123457 C38.9629647,79.1892963 39.1358025,78.3333378 39.1358025,77.4444444 C39.1358025,76.5555511 38.9629647,75.6995926 38.617284,74.8765432 C38.2880642,74.0946463 37.8189331,73.39918 37.2098765,72.7901235 C36.60082,72.1810669 35.9053537,71.7119358 35.1234568,71.382716 C34.3004074,71.0370353 33.4444489,70.8641975 32.5555556,70.8641975 Z M33.8888889,77.8888889 L36.4074074,77.8888889 L32.5555556,81.4444444 L28.7037037,77.8888889 L31.2222222,77.8888889 L31.2222222,74.3333333 L33.8888889,74.3333333 L33.8888889,77.8888889 Z" transform="translate(32.555556, 77.444444) rotate(-270.000000) translate(-32.555556, -77.444444) "></path>
        </g>
      </g>
    </g>
  </g>
</svg>
