<svg width="13px" height="4px" viewBox="0 0 13 4" version="1.1" xmlns="http://www.w3.org/2000/svg" xmlns:xlink="http://www.w3.org/1999/xlink">
  <g stroke="none" stroke-width="1" fill="none" fill-rule="evenodd">
    <g transform="translate(-1281.000000, -692.000000)" fill="currentColor">
      <g transform="translate(59.000000, 250.000000)">
        <g transform="translate(1222.294597, 69.415822)">
          <g transform="translate(0.232492, 373.281136)">
            <path d="M2.82293808,1.5643002 C2.82293808,2.42829002 2.19104759,3.12860041 1.41146904,3.12860041 C0.631890493,3.12860041 0,2.42829002 0,1.5643002 C0,0.700310384 0.631890493,0 1.41146904,0 C2.19104759,0 2.82293808,0.700310384 2.82293808,1.5643002 L2.82293808,1.5643002 Z M7.66226051,1.5643002 C7.66226051,2.42829002 7.03036599,3.12860041 6.25079147,3.12860041 C5.47121696,3.12860041 4.83932243,2.42829002 4.83932243,1.5643002 C4.83932243,0.700310384 5.47121696,0 6.25079147,0 C7.03036599,0 7.66226051,0.700310384 7.66226051,1.5643002 L7.66226051,1.5643002 Z M11.0901139,3.12860041 C11.8696884,3.12860041 12.5015829,2.42829002 12.5015829,1.5643002 C12.5015829,0.700310384 11.8696884,0 11.0901139,0 C10.3105394,0 9.67864486,0.700310384 9.67864486,1.5643002 C9.67864486,2.42829002 10.3105394,3.12860041 11.0901139,3.12860041 L11.0901139,3.12860041 Z"></path>
          </g>
        </g>
      </g>
    </g>
  </g>
</svg>
