<?xml version="1.0" standalone="no"?>
<!DOCTYPE svg PUBLIC "-//W3C//DTD SVG 1.1//EN" "http://www.w3.org/Graphics/SVG/1.1/DTD/svg11.dtd">
<svg xmlns="http://www.w3.org/2000/svg">
<metadata>Copyright (C) 2020 by original authors @ fontello.com</metadata>
<defs>
<font id="rmm-icons" horiz-adv-x="1000" >
<font-face font-family="rmm-icons" font-weight="400" font-stretch="normal" units-per-em="1000" ascent="850" descent="-150" />
<missing-glyph horiz-adv-x="1000" />
<glyph glyph-name="add" unicode="&#xe801;" d="M594 413l375 0c34 0 62-28 62-63 0-34-27-62-62-62l-375 0 0-375c0-35-28-63-63-63-34 0-62 28-62 63l0 375-375 0c-35 0-63 27-63 62 0 35 28 63 63 63l375 0 0 374c0 35 28 63 62 63 35 0 63-28 63-63l0-374z" horiz-adv-x="1063" />

<glyph glyph-name="alert" unicode="&#xe802;" d="M907 534c25-59 37-120 37-184 0-64-12-125-37-184-24-56-58-106-101-150-43-43-94-77-150-101-59-25-120-37-184-37-64 0-125 12-183 37-57 24-107 58-150 101-44 44-78 94-102 150-25 59-37 120-37 184 0 64 12 125 37 184 24 56 58 106 102 150 43 43 93 77 150 101 58 25 119 37 183 37 64 0 125-12 184-37 56-24 107-58 150-101 43-44 77-94 101-150z m-398-419c9 9 14 22 14 36 0 14-5 26-14 36-10 10-22 15-36 15-15 0-27-5-37-14-10-10-15-22-15-37 0-15 5-27 15-37 9-9 21-14 36-14 15 0 27 5 37 15z m-1 196c1 8 5 46 11 113 6 67 9 111 7 132-4 12-9 22-16 31-8 8-18 13-30 13l-16 0c-13 0-23-5-31-13-8-8-12-18-14-31-1-23 1-67 7-133 6-67 9-104 10-112 0-13 3-23 8-31 6-8 15-13 28-13 12 0 22 5 27 13 6 8 9 18 9 31z" horiz-adv-x="1000" />

<glyph glyph-name="avatar" unicode="&#xe803;" d="M890 408c147 0 248-93 248-229 0-99-46-161-119-161-38 0-66 20-71 50l0 0-6 0c-13-31-39-48-75-48-64 0-107 52-107 130 0 75 43 127 105 127 33 0 60-16 72-44l0 0 6 0 0 37 56 0 0-170c0-22 12-35 32-35 34 0 56 44 56 112 0 111-80 186-200 186-119 0-204-89-204-214 0-128 84-210 215-210 37 0 73 5 91 13l0 0 0-46c-25-8-59-13-94-13-160 0-263 102-263 258 0 152 105 257 258 257z m-416 414c213-1 392-151 435-352-8 1-16 1-25 1-15 0-31-1-46-3-16 66-51 129-103 179-146 141-377 141-522 0-146-140-154-371-18-522 32 58 144 108 279 108 36 0 70-3 102-10-5-22-8-44-8-68 0-73 25-140 67-194-50-19-104-30-161-30-246 0-446 199-446 445 0 246 200 446 446 446z m406-596c-36 0-57-29-57-77 0-48 21-77 56-77 37 0 60 29 60 77 0 47-23 77-59 77z m-406 403c83 0 150-71 150-158 0-87-67-158-150-158-83 0-150 71-150 158 0 87 67 158 150 158z" horiz-adv-x="1150" />

<glyph glyph-name="back" unicode="&#xe804;" d="M0 322c0 64 12 125 37 184 24 56 58 107 102 150 43 43 93 77 150 101 58 25 119 37 183 37 64 0 125-12 184-37 56-24 107-58 150-101 43-43 77-94 101-150 25-59 37-120 37-184 0-64-12-125-37-183-24-57-58-107-101-151-43-43-94-77-150-101-59-25-120-37-184-37-64 0-125 12-183 37-57 24-107 58-150 101-44 44-78 94-102 151-25 58-37 119-37 183z m884 0c0 56-11 109-33 161-20 49-50 92-88 130-38 38-81 68-130 88-52 22-105 33-161 33-55 0-109-11-160-33-49-20-93-50-131-88-38-38-67-81-88-130-21-52-32-105-32-161 0-55 11-109 32-160 21-49 50-93 88-131 38-38 82-67 131-88 51-21 105-32 160-32 56 0 109 11 161 32 49 21 92 50 130 88 38 38 68 82 88 131 22 51 33 105 33 160z m-440-83l0-157-222 240 222 241 0-157 223 0 0-167-223 0z" horiz-adv-x="1000" />

<glyph glyph-name="backup" unicode="&#xe805;" d="M458 850l0-144 18 0c212-9 380-184 380-398 0-219-178-398-398-398-219 0-398 179-398 398l0 0 46 0 1-17c9-186 163-335 351-335 195 0 352 158 352 352 0 195-157 352-352 352l0 0 0-164-229 177 229 177z m0-417c69 0 125-56 125-125 0-69-56-125-125-125-69 0-125 56-125 125 0 69 56 125 125 125z" horiz-adv-x="917" />

<glyph glyph-name="calendar" unicode="&#xe806;" d="M0 759c0 50 41 91 91 91l818 0c50 0 91-41 91-91l0-818c0-50-41-91-91-91l-818 0c-50 0-91 41-91 91l0 818z m46-159l0-659c0-25 20-46 45-46l818 0c25 0 46 21 46 46l0 659c0 25-21 46-46 46l-818 0c-25 0-45-21-45-46z m625-364c-19 0-35 16-35 35 0 18 16 34 35 34 18 0 34-16 34-34 0-19-16-35-34-35z m-160 0c-18 0-34 16-34 35 0 18 16 34 34 34 19 0 35-16 35-34 0-19-16-35-35-35z m319 0c-19 0-34 16-34 35 0 18 15 34 34 34 18 0 34-16 34-34 0-19-16-35-34-35z m-319-204c-18 0-34 15-34 34 0 19 16 34 34 34 19 0 35-15 35-34 0-19-16-34-35-34z m160 0c-19 0-35 15-35 34 0 19 16 34 35 34 18 0 34-15 34-34 0-19-16-34-34-34z m0 409c-19 0-35 15-35 34 0 19 16 34 35 34 18 0 34-15 34-34 0-19-16-34-34-34z m159 0c-19 0-34 15-34 34 0 19 15 34 34 34 18 0 34-15 34-34 0-19-16-34-34-34z m-478-205c-19 0-34 16-34 35 0 18 15 34 34 34 19 0 34-16 34-34 0-19-15-35-34-35z m0-204c-19 0-34 15-34 34 0 19 15 34 34 34 19 0 34-15 34-34 0-19-15-34-34-34z m159 409c-18 0-34 15-34 34 0 19 16 34 34 34 19 0 35-15 35-34 0-19-16-34-35-34z m-318-205c-19 0-34 16-34 35 0 18 15 34 34 34 19 0 34-16 34-34 0-19-15-35-34-35z m0-204c-19 0-34 15-34 34 0 19 15 34 34 34 19 0 34-15 34-34 0-19-15-34-34-34z m159 409c-19 0-34 15-34 34 0 19 15 34 34 34 19 0 34-15 34-34 0-19-15-34-34-34z" horiz-adv-x="1000" />

<glyph glyph-name="clock" unicode="&#xe807;" d="M500-150c-276 0-500 224-500 500 0 276 224 500 500 500 276 0 500-224 500-500 0-276-224-500-500-500l0 0z m0 40c254 0 460 206 460 460 0 254-206 460-460 460-254 0-460-206-460-460 0-254 206-460 460-460l0 0z m-20 440l0 340 0 20 40 0 0-20 0-360 0-20-30 0-10 0-220 0-20 0 0 40 20 0 220 0 0 0 0 0z" horiz-adv-x="1000" />

<glyph glyph-name="cog" unicode="&#xe808;" d="M402-141c-59 12-114 34-163 65l2 40c3 66-48 117-114 113l-45-2c-31 47-54 99-68 156l36 32c49 44 49 116 0 161l-38 34c12 56 33 107 62 154l53-2c66-4 117 47 114 113l-3 53c47 29 99 50 154 62l34-38c45-49 117-49 161 0l32 36c57-14 109-37 156-68l-2-45c-3-66 47-117 113-113l40 2c31-50 53-105 65-164l-28-24c-49-45-49-117 0-161l25-22c-13-60-37-116-70-165l-32 1c-66 4-116-47-113-113l2-32c-50-33-106-57-166-70l-22 25c-44 49-116 49-161 0l-24-28z m98 291c111 0 200 90 200 200 0 111-89 200-200 200-110 0-200-89-200-200 0-110 90-200 200-200z" horiz-adv-x="1000" />

<glyph glyph-name="demodevices" unicode="&#xe809;" d="M625 850c35 0 63-28 63-62l0-876c0-34-28-62-63-62l-562 0c-35 0-63 28-63 62l0 876c0 34 28 62 63 62l562 0z m500-250c35 0 63-28 63-62l0-626c0-34-28-62-63-62l-312 0c-35 0-63 28-63 62l0 626c0 34 28 62 63 62l312 0z m-500 203l-562 0c-8 0-14-5-16-12l0-3 0-876c0-7 5-13 12-15l4 0 562 0c7 0 14 5 15 12l1 3 0 876c0 7-5 13-12 15l-4 0z m500-250l-312 0c-8 0-14-5-16-12l0-3 0-626c0-7 5-13 12-15l4 0 312 0c7 0 14 5 15 12l1 3 0 626c0 7-5 13-12 15l-4 0z m-141-515c26 0 47-21 47-47 0-26-21-47-47-47-25 0-46 21-46 47 0 26 21 47 46 47z m-625 62c26 0 47-21 47-47 0-26-21-47-47-47-25 0-46 21-46 47 0 26 21 47 46 47z" horiz-adv-x="1188" />

<glyph glyph-name="dragdrop" unicode="&#xe80a;" d="M0 741c0 60 50 109 111 109 62 0 111-49 111-109 0-60-49-108-111-108-61 0-111 48-111 108z m0-391c0 60 50 109 111 109 62 0 111-49 111-109 0-60-49-109-111-109-61 0-111 49-111 109z m0-391c0 60 50 108 111 108 62 0 111-48 111-108 0-60-49-109-111-109-61 0-111 49-111 109z m333 782c0 60 50 109 111 109 62 0 112-49 112-109 0-60-50-108-112-108-61 0-111 48-111 108z m0-391c0 60 50 109 111 109 62 0 112-49 112-109 0-60-50-109-112-109-61 0-111 49-111 109z m0-391c0 60 50 108 111 108 62 0 112-48 112-108 0-60-50-109-112-109-61 0-111 49-111 109z" horiz-adv-x="556" />

<glyph glyph-name="forumdisplay" unicode="&#xe80b;" d="M0 794l23 0 1311 0 23 0 0-23 0-788 0-23-23 0-1311 0-23 0 0 23 0 788 0 23 0 0z m47-46l0-742 1263 0 0 742-1263 0 0 0z m1006-881l-749 0 0 47 749 0 0-47 0 0z" horiz-adv-x="1357" />

<glyph glyph-name="imageplaceholder" unicode="&#xe80c;" d="M92 668l0 0 0-636c0-51 37-91 84-91l839 0c47 0 85 40 85 91l0 636c0 51-38 91-85 91l-839 0c-47 0-84-40-84-91l0 0z m407-493l-67 101c-2 2-4 4-6 6-11 7-26 4-33-6l0 0-139-207c-3-4-4-9-4-14 0-13 10-23 23-23l0 0 230 0 417 0c5 0 9 1 13 3 11 7 14 21 8 33l0 0-234 385 0 0c-2 3-4 6-8 8-11 7-25 3-32-8l0 0-168-278z m-499 493c0 101 76 182 170 182l851 0c94 0 170-81 170-182l0-636c0-101-76-182-170-182l-851 0c-94 0-170 81-170 182l0 636z m367-182c50 0 91 41 91 91 0 51-41 91-91 91-51 0-92-40-92-91 0-50 41-91 92-91z" horiz-adv-x="1191" />

<glyph glyph-name="info" unicode="&#xe80d;" d="M447-97c-65 0-118 12-176 35-53 24-100 59-142 100-41 41-70 89-94 141-23 53-35 112-35 171 0 59 12 118 35 171 24 53 53 100 94 141 42 41 89 76 142 100 58 23 111 35 176 35 59 0 118-12 171-35 53-24 100-59 141-100 41-41 70-88 94-141 24-53 35-112 35-171 0-59-11-118-35-171-24-52-53-100-94-141-41-41-88-76-141-100-53-23-112-35-171-35z m0 835c-53 0-106-11-153-29-47-24-88-47-123-82-36-42-65-83-83-124-23-53-29-100-29-153 0-53 6-100 29-153 18-41 47-82 83-123 35-36 76-59 123-83 47-18 100-29 153-29 47 0 100 11 147 29 47 24 88 47 124 83 35 41 64 82 82 123 24 53 29 100 29 153 0 53-5 100-29 153-18 41-47 82-82 124-36 35-77 58-124 82-47 18-100 29-147 29z m-29-311l53 0 0-312-53 0 0 312z m23 82c-6 0-17 6-23 12-6 6-12 17-12 29 0 12 6 18 12 24 6 5 17 11 29 11 6 0 18-6 24-11 6-6 11-12 11-24 0-12-5-23-11-29-6-6-18-12-30-12z" horiz-adv-x="941" />

<glyph glyph-name="landscape" unicode="&#xe80e;" d="M1250 676l0-826-1099 0 0 826 1099 0z m-43-43l-1013 0 0-740 1013 0 0 740z m-1207-609l0 826 453 0 0-130-43 0 0 87-367 0 0-740 65 0 0-43-108 0z" horiz-adv-x="1250" />

<glyph glyph-name="layers" unicode="&#xe80f;" d="M1002 339l89-63-535-426-556 426 92 63 34-28-53-38 483-369 464 369-51 38 33 28z m-446 479l492-351-492-394-513 394 513 351z m0-52l-440-301 440-337 421 337-421 301z" horiz-adv-x="1091" />

<glyph glyph-name="more" unicode="&#xe811;" d="M838 285c0-216-158-391-353-391-195 0-353 175-353 391 0 216 158 391 353 391 195 0 353-175 353-391l0 0z m1209 0c0-216-158-391-352-391-195 0-353 175-353 391 0 216 158 391 353 391 194 0 352-175 352-391l0 0z m857-391c195 0 353 175 353 391 0 216-158 391-353 391-195 0-353-175-353-391 0-216 158-391 353-391l0 0z" horiz-adv-x="3250" />

<glyph glyph-name="moreoptions" unicode="&#xe812;" d="M381 660l0-72-205 0c-62 0-100-24-105-62l0-5 0-514c0-43 34-67 96-67l9 0 776 0c62 0 96 19 100 62l0 5 0 514c0 39-33 62-90 67l-10 0 0 0 0 72c115-5 172-48 172-124l5-10 0-524c0-85-62-133-181-133l-15-5-742 0c-120 0-186 43-191 129l0 9 0 524c0 86 62 129 181 134l10 0 190 0z m233 190l15-14c23-29 57-29 81 0l14 14c28-9 52-19 76-33l0-19c-5-34 24-62 57-57l14 0c20-24 29-53 34-81l-10-10c-24-24-28-57 0-81l10-9c-10-29-19-58-34-81l-14 0c-33 4-62-24-57-58l0-14c-24-14-52-24-81-33l-9 9c-19 24-58 29-81 0l-10-9c-28 5-57 14-81 33l0 14c5 34-24 62-57 58l-19 0c-14 23-24 47-33 76l14 14c28 19 28 57 0 81l-14 14c4 29 14 53 28 77l24 0c33-5 62 23 57 57l0 23c24 15 48 24 76 29z m53-138c-53 0-100-48-100-100 0-52 47-95 100-95 52 0 95 43 95 95 0 52-43 100-95 100z" horiz-adv-x="1143" />

<glyph glyph-name="portrait" unicode="&#xe813;" d="M1250 676l0-826-474 0 0 826 474 0z m-43-43l-388 0 0-740 388 0 0 740z m-129 217l0-130-43 0 0 87-992 0 0-740 690 0 0-43-733 0 0 826 1078 0z" horiz-adv-x="1250" />

<glyph glyph-name="profile" unicode="&#xe814;" d="M826-20c102 91 167 223 167 370 0 272-221 493-493 493-272 0-493-221-493-493 0-147 65-279 167-370 87-76 201-123 326-123 119 0 228 43 313 113 5 3 9 7 13 10l0 0z m-612 18c22 9 46 17 68 25l1 0c32 12 62 23 79 31 40 20 33 92 0 138-26 66-59 172-59 207 0 11 6 21 11 30 5 7 9 14 9 20-1 3-3 6-4 10-7 16-16 37-16 105 0 101 138 141 197 141 59 0 197-40 197-141 0-68-9-89-16-105-1-4-2-7-4-10 0-6 4-13 9-20 5-9 11-19 11-30 0-35-33-141-59-207-33-46-39-118 0-138 17-8 47-19 80-31l0 0c23-8 46-16 68-25 102 83 167 210 167 352 0 250-203 453-453 453-250 0-453-203-453-453 0-142 65-269 167-352l0 0z" horiz-adv-x="1000" />

<glyph glyph-name="repeat" unicode="&#xe815;" d="M90-60l-43 311 311-43-118-118c147-146 379-153 527-18l14 13 32-32c-161-162-421-164-591-9l-14 14-118-118z m828 828l43-311-311 43 126 126c-147 146-379 153-528 18l-13-13-32 32c161 161 421 163 591 8l14-13 110 110z" horiz-adv-x="1000" />

<glyph glyph-name="star" unicode="&#xe816;" d="M531 850l119-381 400 0-325-231 125-382-319 238-325-238 125 382-325 231 400 0 125 381z m0-131l-93-288-307 0 244-181-94-288 250 182 244-182-94 288 250 181-306 0-94 288z" horiz-adv-x="1063" />

<glyph glyph-name="trashcan" unicode="&#xe817;" d="M520 850c22 0 40-18 40-40l0-80 160 0 0 0 40 0 0-40-43 0-50-780c-2-33-31-60-64-60l-466 0c-22 0-41 18-42 40l-52 800-43 0 0 40 40 0 0 0 160 0 0 80c0 22 18 40 40 40l280 0z m-280-259l-40-2 40-600 40 2-40 600z m280 0l-40-600 40-2 40 600-40 2z m-120-1l-40 0 0-600 40 0 0 600z m120 220l-280 0 0 0 0-10c0-2 0-4 0-7l0-63 280 0 0 80z" horiz-adv-x="813" />

<glyph glyph-name="videowall" unicode="&#xe818;" d="M0 793l21 0 1315 0 21 0 0-22 0-785 0-29-21 0-1315 0-21 0 0 29 0 785 0 22 0 0z m50-43l0-743 1257 0 0 743-1257 0 0 0z m1307-857l-1357 0 0 43 1357 0 0-43 0 0z" horiz-adv-x="1357" />

<glyph glyph-name="menu" unicode="&#xf0ca;" d="M214 64q0-44-31-76t-76-31-76 31-31 76 31 76 76 31 76-31 31-76z m0 286q0-45-31-76t-76-31-76 31-31 76 31 76 76 31 76-31 31-76z m786-232v-107q0-7-5-13t-13-5h-678q-8 0-13 5t-5 13v107q0 7 5 12t13 6h678q7 0 13-6t5-12z m-786 518q0-45-31-76t-76-31-76 31-31 76 31 76 76 31 76-31 31-76z m786-232v-108q0-7-5-12t-13-5h-678q-8 0-13 5t-5 12v108q0 7 5 12t13 5h678q7 0 13-5t5-12z m0 285v-107q0-7-5-12t-13-6h-678q-8 0-13 6t-5 12v107q0 8 5 13t13 5h678q7 0 13-5t5-13z" horiz-adv-x="1000" />
</font>
</defs>
</svg>
