<svg width="23px" height="20px" viewBox="0 0 23 20" version="1.1" xmlns="http://www.w3.org/2000/svg" xmlns:xlink="http://www.w3.org/1999/xlink">
    <g id="Symbols" stroke="none" stroke-width="1" fill="none" fill-rule="evenodd">
        <g id="Icon/avatar" fill="currentColor" fill-rule="nonzero">
            <g id="Avatar">
                <path d="M17.8001645,8.84210526 C20.7421875,8.84210526 22.7652138,10.7047697 22.7652138,13.4124178 C22.7652138,15.3922697 21.8462171,16.6381579 20.3782895,16.6381579 C19.6258224,16.6381579 19.0645559,16.2434211 18.9535362,15.645148 L18.9535362,15.645148 L18.8425164,15.645148 C18.5834704,16.2680921 18.0592105,16.6073191 17.34375,16.6073191 C16.0608553,16.6073191 15.2035362,15.5587993 15.2035362,13.9921875 C15.2035362,12.4934211 16.0608553,11.4634046 17.3067434,11.4634046 C17.9605263,11.4634046 18.5032895,11.7902961 18.7438322,12.3330592 L18.7438322,12.3330592 L18.854852,12.3330592 L18.854852,11.5929276 L19.9835526,11.5929276 L19.9835526,15.0098684 C19.9835526,15.4416118 20.2117599,15.7006579 20.6126645,15.7006579 C21.2972862,15.7006579 21.7290296,14.8248355 21.7290296,13.4617599 C21.7290296,11.2351974 20.1315789,9.74876645 17.7446546,9.74876645 C15.3515625,9.74876645 13.6677632,11.5127467 13.6677632,14.0230263 C13.6677632,16.582648 15.339227,18.2109375 17.9666941,18.2109375 C18.6944901,18.2109375 19.4284539,18.1122533 19.7861842,17.964227 L19.7861842,17.964227 L19.7861842,18.8770559 C19.2742599,19.0374178 18.6019737,19.1299342 17.9050164,19.1299342 C14.7039474,19.1299342 12.6315789,17.1069079 12.6315789,13.9860197 C12.6315789,10.9391447 14.7347862,8.84210526 17.8001645,8.84210526 Z M9.47368421,0.568421053 C13.7463375,0.57326122 17.3148185,3.58327332 18.1792271,7.59855729 C18.015301,7.5853744 17.8505063,7.57894737 17.6842105,7.57894737 C17.3731084,7.57894737 17.06726,7.60144071 16.7682027,7.64488979 C16.4409504,6.31988947 15.7487596,5.06902796 14.6976247,4.0528177 C11.7844113,1.23639785 7.16295712,1.23639785 4.24974377,4.0528177 C1.33653041,6.86923754 1.18042997,11.4880546 3.89684211,14.4947368 C4.53221053,13.3364211 6.77684211,12.3372632 9.47368421,12.3372632 C10.1937775,12.3372632 10.8819,12.4084993 11.5158085,12.5349805 C11.4190002,12.9735288 11.3684211,13.4282261 11.3684211,13.8947368 C11.3684211,15.3580323 11.8660575,16.7050985 12.7013266,17.7759318 C11.7012034,18.165219 10.6124033,18.3789474 9.47368421,18.3789474 C4.55544318,18.3789474 0.568421053,14.3919252 0.568421053,9.47368421 C0.568421053,4.55544318 4.55544318,0.568421053 9.47368421,0.568421053 Z M17.5904605,12.4872533 C16.875,12.4872533 16.4494243,13.0608553 16.4494243,14.0291941 C16.4494243,14.9851974 16.8811678,15.5649671 17.5842928,15.5649671 C18.3120888,15.5649671 18.7746711,14.9728618 18.7746711,14.0291941 C18.7746711,13.0793586 18.3182566,12.4872533 17.5904605,12.4872533 Z M9.47368421,4.42105263 C11.1305385,4.42105263 12.4736842,5.83489026 12.4736842,7.57894737 C12.4736842,9.32300447 11.1305385,10.7368421 9.47368421,10.7368421 C7.81682996,10.7368421 6.47368421,9.32300447 6.47368421,7.57894737 C6.47368421,5.83489026 7.81682996,4.42105263 9.47368421,4.42105263 Z"></path>
            </g>
        </g>
    </g>
</svg>
