<svg width="11px" height="12px" viewBox="0 0 11 12" version="1.1" xmlns="http://www.w3.org/2000/svg" xmlns:xlink="http://www.w3.org/1999/xlink">
    <g id="Symbols" stroke="none" stroke-width="1" fill="none" fill-rule="evenodd">
        <g id="Backup" transform="translate(-4.000000, -3.000000)" fill="#888888" fill-rule="nonzero">
            <g id="Group-3">
                <path d="M9.5,3 L9.5,4.725 L9.71269721,4.72965247 C12.251157,4.84092367 14.275,6.93411491 14.275,9.5 C14.275,12.1371597 12.1371597,14.275 9.5,14.275 C6.86284032,14.275 4.725,12.1371597 4.725,9.5 L4.725,9.5 L5.275,9.5 L5.28017067,9.71087011 C5.39004794,11.9463083 7.23730612,13.725 9.5,13.725 C11.8334031,13.725 13.725,11.8334031 13.725,9.5 C13.725,7.16659693 11.8334031,5.275 9.5,5.275 L9.5,5.275 L9.5,7.25 L6.75,5.125 L9.5,3 Z M9.5,8 C10.3284271,8 11,8.67157288 11,9.5 C11,10.3284271 10.3284271,11 9.5,11 C8.67157288,11 8,10.3284271 8,9.5 C8,8.67157288 8.67157288,8 9.5,8 Z" id="Combined-Shape"></path>
            </g>
        </g>
    </g>
</svg>
