<svg width="14px" height="14px" viewBox="0 0 14 14" version="1.1" xmlns="http://www.w3.org/2000/svg"
  xmlns:xlink="http://www.w3.org/1999/xlink">
  <g stroke="none" stroke-width="1" fill="none" fill-rule="evenodd">
    <g transform="translate(-59.000000, -295.000000)" fill="currentColor">
      <path
        d="M66,309 C62.1340068,309 59,305.865993 59,302 C59,298.134007 62.1340068,295 66,295 C69.8659932,295 73,298.134007 73,302 C73,305.865993 69.8659932,309 66,309 L66,309 Z M66,308.44 C69.5567138,308.44 72.44,305.556714 72.44,302 C72.44,298.443286 69.5567138,295.56 66,295.56 C62.4432862,295.56 59.56,298.443286 59.56,302 C59.56,305.556714 62.4432862,308.44 66,308.44 L66,308.44 Z M65.72,302.28 L65.72,297.52 L65.72,297.24 L66.28,297.24 L66.28,297.52 L66.28,302.56 L66.28,302.84 L65.86,302.84 L65.72,302.84 L62.64,302.84 L62.36,302.84 L62.36,302.28 L62.64,302.28 L65.72,302.28 L65.72,302.28 L65.72,302.28 Z">
      </path>
    </g>
  </g>
</svg>
