<svg class="rmm-cog" height="50px" version="1.1" viewBox="0 0 50 50" width="50px" xmlns="http://www.w3.org/2000/svg">
  <g stroke="none" stroke-width="1" fill="none" fill-rule="evenodd">
    <g transform="translate(-8.000000, -8.000000)" class="SvgImage-fill-color" fill="currentColor">
      <path d="M28.0990195,57.524188 C25.1550214,56.9391321 22.3971954,55.8372031 19.9241017,54.3169612 L20.0260416,52.3212092 C20.1948087,49.016982 17.6536797,46.4751556 14.348789,46.6439565 L12.1176253,46.7579157 C10.5656931,44.4070711 9.40008064,41.7787364 8.71121375,38.9633374 L10.4988671,37.3494229 C12.9546449,35.1323179 12.9551381,31.5381256 10.4988671,29.3205752 L8.58242741,27.5903909 C9.19253769,24.8240807 10.2607565,22.2297207 11.7034662,19.8909288 L14.348789,20.0260416 C17.6530161,20.1948087 20.1948426,17.6536797 20.0260416,14.348789 L19.8909288,11.7034662 C22.2297207,10.2607565 24.8240807,9.19253769 27.5903909,8.58242741 L29.3205752,10.4988671 C31.5376803,12.9546449 35.1318726,12.9551381 37.3494229,10.4988671 L38.9633374,8.71121375 C41.7787364,9.40008064 44.4070711,10.5656931 46.7579157,12.1176253 L46.6439565,14.348789 C46.4751895,17.6530161 49.0163184,20.1948426 52.3212092,20.0260416 L54.316964,19.9241062 C55.8372031,22.3971954 56.9391321,25.1550214 57.524188,28.0990195 L56.1711311,29.3205752 C53.7153533,31.5376803 53.7148601,35.1318726 56.1711311,37.3494229 L57.4055429,38.4638645 C56.7388723,41.4548055 55.5364405,44.2437688 53.9041927,46.7248092 L52.3212092,46.6439565 C49.016982,46.4751895 46.4751556,49.0163184 46.6439565,52.3212092 L46.7248092,53.9041927 C44.2437688,55.5364405 41.4548055,56.7388723 38.4638645,57.4055429 L37.3494229,56.1711311 C35.1323179,53.7153533 31.5381256,53.7148601 29.3205752,56.1711311 L28.0990195,57.524188 Z M33,43 C38.5228475,43 43,38.5228475 43,33 C43,27.4771525 38.5228475,23 33,23 C27.4771525,23 23,27.4771525 23,33 C23,38.5228475 27.4771525,43 33,43 Z" ></path>
    </g>
  </g>
</svg>
