<svg width="19px" height="16px" viewBox="0 0 19 16" version="1.1" xmlns="http://www.w3.org/2000/svg" xmlns:xlink="http://www.w3.org/1999/xlink">
    <g stroke="none" stroke-width="1" fill="none" fill-rule="evenodd">
        <g fill="currentColor">
            <path d="M10,0 C10.5522847,0 11,0.44771525 11,1 L11,15 C11,15.5522847 10.5522847,16 10,16 L1,16 C0.44771525,16 0,15.5522847 0,15 L0,1 C0,0.44771525 0.44771525,0 1,0 L10,0 Z M18,4 C18.5522847,4 19,4.44771525 19,5 L19,15 C19,15.5522847 18.5522847,16 18,16 L13,16 C12.4477153,16 12,15.5522847 12,15 L12,5 C12,4.44771525 12.4477153,4 13,4 L18,4 Z M10,0.75 L1,0.75 C0.881653268,0.75 0.782513179,0.832233413 0.756602678,0.942677294 L0.75,1 L0.75,15 C0.75,15.1183467 0.832233413,15.2174868 0.942677294,15.2433973 L1,15.25 L10,15.25 C10.1183467,15.25 10.2174868,15.1677666 10.2433973,15.0573227 L10.25,15 L10.25,1 C10.25,0.881653268 10.1677666,0.782513179 10.0573227,0.756602678 L10,0.75 Z M18,4.75 L13,4.75 C12.8816533,4.75 12.7825132,4.83223341 12.7566027,4.94267729 L12.75,5 L12.75,15 C12.75,15.1183467 12.8322334,15.2174868 12.9426773,15.2433973 L13,15.25 L18,15.25 C18.1183467,15.25 18.2174868,15.1677666 18.2433973,15.0573227 L18.25,15 L18.25,5 C18.25,4.88165327 18.1677666,4.78251318 18.0573227,4.75660268 L18,4.75 Z M15.75,13 C16.1642136,13 16.5,13.3357864 16.5,13.75 C16.5,14.1642136 16.1642136,14.5 15.75,14.5 C15.3357864,14.5 15,14.1642136 15,13.75 C15,13.3357864 15.3357864,13 15.75,13 Z M5.75,12 C6.16421356,12 6.5,12.3357864 6.5,12.75 C6.5,13.1642136 6.16421356,13.5 5.75,13.5 C5.33578644,13.5 5,13.1642136 5,12.75 C5,12.3357864 5.33578644,12 5.75,12 Z"></path>
        </g>
    </g>
</svg>
