<svg width="81px" height="68px" viewBox="0 0 81 68" version="1.1" xmlns="http://www.w3.org/2000/svg" xmlns:xlink="http://www.w3.org/1999/xlink">
    <g id="Symbols" stroke="none" stroke-width="1" fill="none" fill-rule="evenodd">
        <g id="NEW/Apple-Led-(Manually-Created-:-Regular)" transform="translate(-362.000000, -1134.000000)" fill-rule="nonzero" fill="#888888">
            <g id="Welcome" transform="translate(75.000000, 935.000000)">
                <g id="Image" transform="translate(20.000000, 60.000000)">
                    <path d="M273.230769,151.348458 L273.230769,151.348458 L273.230769,194.651542 C273.230769,198.059166 275.794237,200.818182 278.956434,200.818182 L336.043566,200.818182 C339.207531,200.818182 341.769231,198.057283 341.769231,194.651542 L341.769231,151.348458 C341.769231,147.940834 339.205763,145.181818 336.043566,145.181818 L278.956434,145.181818 C275.792469,145.181818 273.230769,147.942717 273.230769,151.348458 L273.230769,151.348458 Z M300.941296,184.875598 L296.366497,178.067313 C296.250871,177.895236 296.102906,177.747271 295.93083,177.631645 C295.197376,177.138804 294.203267,177.333859 293.710426,178.067313 L293.710426,178.067313 L284.251659,192.143996 C284.074375,192.407833 283.979695,192.718496 283.979695,193.036364 C283.979695,193.920019 284.696039,194.636364 285.579695,194.636364 L285.579695,194.636364 L301.186559,194.636364 L329.585648,194.636364 C329.877532,194.636364 330.163856,194.556519 330.413619,194.405474 C331.169758,193.948198 331.412034,192.964531 330.954759,192.208392 L330.954759,192.208392 L315.09988,165.991197 L315.09988,165.991197 C314.965929,165.769699 314.780238,165.584008 314.55874,165.450057 C313.802602,164.992781 312.818935,165.235058 312.361659,165.991197 L312.361659,165.991197 L300.941296,184.875598 Z M267,151.348458 C267,144.521393 272.192031,139 278.585738,139 L336.414262,139 C342.806862,139 348,144.520228 348,151.348458 L348,194.651542 C348,201.478607 342.807969,207 336.414262,207 L278.585738,207 C272.193138,207 267,201.479772 267,194.651542 L267,151.348458 Z M291.923077,163.727273 C295.364236,163.727273 298.153846,160.959578 298.153846,157.545455 C298.153846,154.131331 295.364236,151.363636 291.923077,151.363636 C288.481918,151.363636 285.692308,154.131331 285.692308,157.545455 C285.692308,160.959578 288.481918,163.727273 291.923077,163.727273 Z" id="Shape"></path>
                </g>
            </g>
        </g>
    </g>
</svg>
