<svg xmlns="http://www.w3.org/2000/svg" width="16" height="17" viewBox="0 0 16 17">
  <g fill="none">
    <g fill="currentColor">
      <path d="M7.6 16.1C6.5 16.1 5.6 15.9 4.6 15.5 3.7 15.1 2.9 14.5 2.2 13.8 1.5 13.1 1 12.3 0.6 11.4 0.2 10.5 0 9.5 0 8.5 0 7.5 0.2 6.5 0.6 5.6 1 4.7 1.5 3.9 2.2 3.2 2.9 2.5 3.7 1.9 4.6 1.5 5.6 1.1 6.5 0.9 7.6 0.9 8.6 0.9 9.6 1.1 10.5 1.5 11.4 1.9 12.2 2.5 12.9 3.2 13.6 3.9 14.1 4.7 14.5 5.6 14.9 6.5 15.1 7.5 15.1 8.5 15.1 9.5 14.9 10.5 14.5 11.4 14.1 12.3 13.6 13.1 12.9 13.8 12.2 14.5 11.4 15.1 10.5 15.5 9.6 15.9 8.6 16.1 7.6 16.1ZM7.6 1.9C6.7 1.9 5.8 2.1 5 2.4 4.2 2.8 3.5 3.2 2.9 3.8 2.3 4.5 1.8 5.2 1.5 5.9 1.1 6.8 1 7.6 1 8.5 1 9.4 1.1 10.2 1.5 11.1 1.8 11.8 2.3 12.5 2.9 13.2 3.5 13.8 4.2 14.2 5 14.6 5.8 14.9 6.7 15.1 7.6 15.1 8.4 15.1 9.3 14.9 10.1 14.6 10.9 14.2 11.6 13.8 12.2 13.2 12.8 12.5 13.3 11.8 13.6 11.1 14 10.2 14.1 9.4 14.1 8.5 14.1 7.6 14 6.8 13.6 5.9 13.3 5.2 12.8 4.5 12.2 3.8 11.6 3.2 10.9 2.8 10.1 2.4 9.3 2.1 8.4 1.9 7.6 1.9ZM7.1 7.2L8 7.2 8 12.5 7.1 12.5 7.1 7.2ZM7.5 5.8C7.4 5.8 7.2 5.7 7.1 5.6 7 5.5 6.9 5.3 6.9 5.1 6.9 4.9 7 4.8 7.1 4.7 7.2 4.6 7.4 4.5 7.6 4.5 7.7 4.5 7.9 4.6 8 4.7 8.1 4.8 8.2 4.9 8.2 5.1 8.2 5.3 8.1 5.5 8 5.6 7.9 5.7 7.7 5.8 7.5 5.8Z"/>
    </g>
  </g>
</svg>
