<svg width="20px" height="13px" viewBox="0 0 20 13" version="1.1" xmlns="http://www.w3.org/2000/svg" xmlns:xlink="http://www.w3.org/1999/xlink">
    <g stroke="none" stroke-width="1" fill="none" fill-rule="evenodd">
        <g fill="currentColor">
            <path d="M1.9047619,11 L1.9047619,13 L9.59232693e-14,13 L9.59232693e-14,11 L1.9047619,11 Z M20,11.5 L20,12.5 L3.80952381,12.5 L3.80952381,11.5 L20,11.5 Z M1.9047619,5.5 L1.9047619,7.5 L9.59232693e-14,7.5 L9.59232693e-14,5.5 L1.9047619,5.5 Z M20,6 L20,7 L3.80952381,7 L3.80952381,6 L20,6 Z M1.9047619,-7.54951657e-15 L1.9047619,2 L9.59232693e-14,2 L9.59232693e-14,-7.54951657e-15 L1.9047619,-7.54951657e-15 Z M20,0.5 L20,1.5 L3.80952381,1.5 L3.80952381,0.5 L20,0.5 Z" id="activity"></path>
        </g>
    </g>
</svg>
