<svg xmlns="http://www.w3.org/2000/svg" width="24" height="21" viewBox="0 0 24 21">
  <g fill="none">
    <g fill="currentColor">
      <path d="M8 4L8 5.5 3.7 5.5C2.4 5.5 1.6 6 1.5 6.8L1.5 6.9 1.5 17.7C1.5 18.6 2.2 19.1 3.5 19.1L3.7 19.1 20 19.1C21.3 19.1 22 18.7 22.1 17.8L22.1 17.7 22.1 6.9C22.1 6.1 21.4 5.6 20.2 5.5L20 5.5 20 5.5 20 4C22.4 4.1 23.6 5 23.6 6.6L23.7 6.8 23.7 17.8C23.7 19.6 22.4 20.6 19.9 20.6L19.6 20.7 4 20.7C1.5 20.7 0.1 19.8 0 18L0 17.8 0 6.8C0 5 1.3 4.1 3.8 4L4 4 8 4ZM12.9 0L13.2 0.3C13.7 0.9 14.4 0.9 14.9 0.3L15.2 0C15.8 0.2 16.3 0.4 16.8 0.7L16.8 1.1C16.7 1.8 17.3 2.4 18 2.3L18.3 2.3C18.7 2.8 18.9 3.4 19 4L18.8 4.2C18.3 4.7 18.2 5.4 18.8 5.9L19 6.1C18.8 6.7 18.6 7.3 18.3 7.8L18 7.8C17.3 7.7 16.7 8.3 16.8 9L16.8 9.3C16.3 9.6 15.7 9.8 15.1 10L14.9 9.8C14.5 9.3 13.7 9.2 13.2 9.8L13 10C12.4 9.9 11.8 9.7 11.3 9.3L11.3 9C11.4 8.3 10.8 7.7 10.1 7.8L9.7 7.8C9.4 7.3 9.2 6.8 9 6.2L9.3 5.9C9.9 5.5 9.9 4.7 9.3 4.2L9 3.9C9.1 3.3 9.3 2.8 9.6 2.3L10.1 2.3C10.8 2.4 11.4 1.8 11.3 1.1L11.3 0.6C11.8 0.3 12.3 0.1 12.9 0ZM14 2.9C12.9 2.9 11.9 3.9 11.9 5 11.9 6.1 12.9 7 14 7 15.1 7 16 6.1 16 5 16 3.9 15.1 2.9 14 2.9Z"/>
    </g>
  </g>
</svg>
