<?xml version="1.0" encoding="UTF-8"?><svg width="18" height="14" xmlns="http://www.w3.org/2000/svg"><path d="M15.532 13.945c.642 0 1.125-.164 1.45-.492.326-.327.488-.805.488-1.433V5.362c0-.633-.162-1.112-.488-1.437-.325-.325-.808-.488-1.45-.488l-1.345.001v-.95c0-.628-.162-1.106-.487-1.434-.325-.327-.809-.49-1.45-.49H2.619c-.642 0-1.125.16-1.45.484C.844 1.37.68 1.85.68 2.488v6.658c0 .637.163 1.117.488 1.44.325.323.808.485 1.45.485h1.344v.949c0 .633.163 1.112.488 1.437.326.325.811.488 1.457.488h9.624zM3.963 10.26H2.639c-.374 0-.658-.098-.854-.294-.196-.195-.293-.484-.293-.866V2.534c0-.382.097-.671.293-.867.196-.195.48-.293.854-.293h9.59c.365 0 .648.098.848.293.2.196.3.485.3.867l-.001.904H5.908c-.646 0-1.131.16-1.457.48-.325.321-.487.802-.487 1.444l-.001 4.898zm.811 1.168v-6.02c0-.382.098-.671.294-.867.195-.195.48-.293.853-.293h9.591c.365 0 .648.098.847.293.2.196.3.485.3.867v5.464L14.102 8.48a1.524 1.524 0 00-.468-.307 1.383 1.383 0 00-.528-.102c-.184 0-.356.033-.514.1a1.696 1.696 0 00-.468.302l-2.88 2.532-1.128-1.029a1.677 1.677 0 00-.418-.283 1.065 1.065 0 00-.452-.099c-.15 0-.29.032-.422.096a1.737 1.737 0 00-.402.28l-1.648 1.458zm3.448-2.803c.272 0 .523-.068.751-.204.229-.137.411-.32.548-.55.136-.231.204-.487.204-.769 0-.272-.068-.524-.204-.754a1.545 1.545 0 00-.548-.55 1.44 1.44 0 00-.751-.205c-.281 0-.536.068-.765.204-.228.136-.41.32-.547.55-.136.231-.204.483-.204.755 0 .282.068.538.204.768.136.231.319.414.547.55.229.137.484.205.765.205z" fill="#333" fill-rule="nonzero"/></svg>