<svg width="14px" height="14px" viewBox="0 0 14 14" version="1.1" xmlns="http://www.w3.org/2000/svg" xmlns:xlink="http://www.w3.org/1999/xlink">
  <g stroke="none" stroke-width="1" fill="none" fill-rule="evenodd">
    <g transform="translate(-57.000000, -327.000000)" fill="currentColor">
      <g transform="translate(57.000000, 327.000000)">
        <path d="M11.5614345,12.1728 C12.9933793,10.9090759 13.8965517,9.06008276 13.8965517,7 C13.8965517,3.19113931 10.8088828,0.103448276 7,0.103448276 C3.19113931,0.103448276 0.103448276,3.19113931 0.103448276,7 C0.103448276,9.06008276 1.00659862,10.9090759 2.43857655,12.1728 C3.65422897,13.2456828 5.25121103,13.8965517 7,13.8965517 C8.66637241,13.8965517 10.1947586,13.3054897 11.386869,12.3216552 C11.4458483,12.2730483 11.5040552,12.2234483 11.5614345,12.1728 L11.5614345,12.1728 Z M3.00107586,11.9263448 C3.29956966,11.8077793 3.63321931,11.6877793 3.95069793,11.5735724 L3.95474207,11.5720828 C4.41056,11.408 4.83256828,11.2560552 5.06896552,11.137931 C5.62068966,10.862069 5.52868966,9.8505931 5.06896552,9.20689655 C4.70110345,8.28733793 4.24137931,6.80386207 4.24137931,6.31034483 C4.24137931,6.15801379 4.3255669,6.01870345 4.40099862,5.89401379 C4.46201379,5.79310345 4.51724138,5.70162759 4.51724138,5.62068966 C4.50054069,5.57071448 4.48087172,5.52384 4.45986207,5.47373241 C4.36462897,5.24703448 4.24137931,4.95339586 4.24137931,4.00269241 C4.24137931,2.5862069 6.17324138,2.03448276 7,2.03448276 C7.82675862,2.03448276 9.75862069,2.5862069 9.75862069,4.00269241 C9.75862069,4.95339586 9.63536552,5.24703448 9.54013793,5.47373241 C9.51911724,5.52384 9.49947586,5.57071448 9.48275862,5.62068966 C9.48275862,5.70162759 9.53798621,5.79310345 9.5990069,5.89401379 C9.67442759,6.01870345 9.75862069,6.15801379 9.75862069,6.31034483 C9.75862069,6.80386207 9.29886897,8.28733793 8.93103448,9.20689655 C8.47128276,9.8505931 8.37931034,10.862069 8.93103448,11.137931 C9.16744828,11.2560552 9.58946207,11.408 10.0452414,11.5720828 L10.0493241,11.5735724 C10.3667862,11.6877793 10.7004138,11.8077793 10.9988966,11.9263448 C12.4303448,10.7629241 13.3448276,8.98830345 13.3448276,7 C13.3448276,3.49582345 10.5041655,0.655172414 7,0.655172414 C3.49582345,0.655172414 0.655172414,3.49582345 0.655172414,7 C0.655172414,8.98830345 1.56963862,10.7629241 3.00107586,11.9263448 L3.00107586,11.9263448 Z" ></path>
      </g>
    </g>
  </g>
</svg>
