<svg width="11px" height="11px" viewBox="0 0 11 11" version="1.1" xmlns="http://www.w3.org/2000/svg" xmlns:xlink="http://www.w3.org/1999/xlink">
    <g id="Symbols" stroke="none" stroke-width="1" fill="none" fill-rule="evenodd">
        <g id="Daily" transform="translate(-4.000000, -4.000000)" fill="currentColor" fill-rule="nonzero">
            <g id="reload" transform="translate(9.500000, 9.500000) rotate(-315.000000) translate(-9.500000, -9.500000) translate(4.000000, 3.000000)">
                <path d="M5.5,12.8773585 L2.75,10.7924528 L5.5,8.70754717 L5.5,10.5424528 C7.7771053,10.5424528 9.63433329,8.78796812 9.74480155,6.58514663 L9.75,6.37735849 L10.25,6.37735849 C10.25,8.88329779 8.23886183,10.9260994 5.71734492,11.0376548 L5.5,11.0424528 L5.5,12.8773585 Z M5.5,-1.07958087e-12 L8.25,2.08490566 L5.5,4.16981132 L5.5,2.21226415 C3.2228947,2.21226415 1.36566671,3.96674886 1.25519845,6.16957035 L1.25,6.37735849 L0.75,6.37735849 C0.75,3.87141919 2.76113817,1.8286176 5.28265508,1.71706222 L5.5,1.71226415 L5.5,-1.07958087e-12 Z" id="Combined-Shape"></path>
            </g>
        </g>
    </g>
</svg>
