<?xml version="1.0" encoding="UTF-8"?><svg width="17" height="13" xmlns="http://www.w3.org/2000/svg"><path d="M14.174 12.22c.646 0 1.132-.163 1.457-.488.325-.326.488-.805.488-1.437V2.213c0-.637-.163-1.117-.488-1.44-.325-.323-.81-.485-1.457-.485H2.62c-.642 0-1.125.162-1.45.485-.325.323-.488.803-.488 1.44v8.082c0 .637.163 1.117.488 1.44.325.323.808.484 1.45.484h11.555zM1.491 9.846V2.253c0-.383.098-.67.294-.864.196-.193.48-.29.854-.29H14.16c.365 0 .646.097.844.29.198.194.297.481.297.864L15.3 9.824l-3.69-3.425a2.006 2.006 0 00-.489-.316 1.308 1.308 0 00-.54-.113c-.185 0-.358.035-.521.103a1.682 1.682 0 00-.481.32l-3 2.676-1.239-1.14a1.655 1.655 0 00-.431-.29 1.125 1.125 0 00-.465-.1 1.03 1.03 0 00-.442.096c-.136.064-.272.16-.409.287L1.491 9.847zm4.035-3.514c.286 0 .545-.07.778-.21.233-.142.42-.33.56-.565.14-.235.211-.495.211-.78 0-.286-.07-.547-.211-.782a1.619 1.619 0 00-.56-.563 1.476 1.476 0 00-.778-.211c-.286 0-.546.07-.781.21a1.61 1.61 0 00-.564.564c-.14.235-.21.496-.21.781 0 .286.07.546.21.781.14.236.329.423.564.564.235.14.495.211.78.211z" fill="#333" fill-rule="nonzero"/></svg>